<svg id="about" xmlns="http://www.w3.org/2000/svg" width="543" height="90" viewBox="0 0 543 90">
  <path id="패스_13" data-name="패스 13" d="M303.851-325.082h-43.16v-11.633H359.25v11.633H316.09v74.647H303.851Z" transform="translate(183.75 336.715)"/>
  <path id="패스_14" data-name="패스 14" d="M-164.786-333.715h10.2l19.079,86.28h-12.24l-3.6-18.54h-16.68l-3.6,18.54h-12.24Zm5.16,24.841h-.24l-6,31.265h12.24Z" transform="translate(183.865 336.715)"/>
  <path id="패스_15" data-name="패스 15" d="M-121.5-333.715H-15.626c15.839,0,21.719,10.542,21.719,21.811v3.151c0,9.211-3,12.6-8.4,16,5.76,2.787,8.4,8,8.4,16.965v4.847c0,15.027-7.08,23.509-22.919,23.509H-121.5Zm12.239,73.92h93.28c9.84,0,10.56-6.059,10.56-14.541,0-8.6-1.561-13.088-10.44-13.088h-93.4Zm0-38.536h93.52c8.16,0,10.32-4.24,10.32-12.118,0-7.635-2.76-11.634-10.8-11.634h-93.04Z" transform="translate(183.865 336.715)"/>
  <path id="패스_16" data-name="패스 16" d="M131.894-313.353c0-14.055,10.56-21.082,20.519-21.082s20.519,7.027,20.519,21.082V-267.8c0,14.054-10.559,21.082-20.519,21.082s-20.519-7.028-20.519-21.082ZM144.133-267.8c0,5.937,3.84,8.724,8.28,8.724s8.28-2.787,8.28-8.724v-45.556c0-5.937-3.84-8.724-8.28-8.724s-8.28,2.787-8.28,8.724Z" transform="translate(183.793 336.715)"/>
  <path id="패스_17" data-name="패스 17" d="M237.332-266.829a19.867,19.867,0,0,1-19.8,20.114,19.867,19.867,0,0,1-19.8-20.114v-66.886h12.239v65.674c0,6.059,3.24,8.967,7.56,8.967s7.56-2.908,7.56-8.967v-65.674h12.24Z" transform="translate(183.778 336.715)"/>
  <ellipse id="타원_3" data-name="타원 3" cx="39.5" cy="39.922" rx="39.5" ry="39.922" transform="translate(208.643 3.27)"/>
</svg>
